<?xml version="1.0" standalone="yes"?>

<svg version="1.1" viewBox="0.0 0.0 931.0 163.0" fill="none" stroke="none" stroke-linecap="square" stroke-miterlimit="10" xmlns="http://www.w3.org/2000/svg" xmlns:xlink="http://www.w3.org/1999/xlink"><clipPath id="p.0"><path d="m0 0l931.0 0l0 163.0l-931.0 0l0 -163.0z" clip-rule="nonzero"></path></clipPath><g clip-path="url(#p.0)"><path fill="#000000" fill-opacity="0.0" d="m0 0l931.8373 0l0 163.23097l-931.8373 0z" fill-rule="nonzero"></path><path fill="#000000" fill-opacity="0.0" d="m-16.0 -40.51706l960.00006 0l0 224.18896l-960.00006 0z" fill-rule="nonzero"></path><path fill="#000000" d="m50.734375 57.942307l45.3125 0l0 59.21875q-11.015625 3.59375 -20.75 5.03125q-9.71875 1.453125 -19.875 1.453125q-25.859375 0 -39.5 -15.1875q-13.625 -15.203125 -13.625 -43.640625q0 -27.65625 15.8125 -43.125q15.828125 -15.468749 43.875 -15.468749q17.578125 0 33.90625 7.03125l-8.046875 19.375q-12.5 -6.250002 -26.015625 -6.250002q-15.703125 0 -25.15625 10.546877q-9.453125 10.546875 -9.453125 28.359375q0 18.59375 7.609375 28.40625q7.625 9.796875 22.15625 9.796875q7.578125 0 15.390625 -1.5625l0 -23.828125l-21.640625 0l0 -20.15625zm119.375 -24.84375q4.84375 0 8.046875 0.703125l-1.796875 22.34375q-2.890625 -0.78125 -7.03125 -0.78125q-11.40625 0 -17.78125 5.859375q-6.359375 5.859375 -6.359375 16.40625l0 44.453125l-23.828125 0l0 -87.34375l18.046875 0l3.515625 14.6875l1.171875 0q4.0625 -7.34375 10.96875 -11.828125q6.921875 -4.5 15.046875 -4.5zm210.46875 88.984375l-3.203125 -11.171875l-1.25 0q-3.828125 6.09375 -10.859375 9.421875q-7.03125 3.3125 -16.015625 3.3125q-15.390625 0 -23.203125 -8.234375q-7.8125 -8.25 -7.8125 -23.71875l0 -56.953125l23.828125 0l0 51.015625q0 9.453125 3.359375 14.1875q3.359375 4.71875 10.703125 4.71875q10.0 0 14.453125 -6.671875q4.453125 -6.6875 4.453125 -22.15625l0 -41.09375l23.828125 0l0 87.34375l-18.28125 0zm91.25 1.5625q-15.390625 0 -24.140625 -11.171875l-1.25 0q1.25 10.9375 1.25 12.65625l0 35.390625l-23.828125 0l0 -125.78125l19.375 0l3.359375 11.328125l1.09375 0q8.359375 -12.96875 24.765625 -12.96875q15.46875 0 24.21875 11.953125q8.75 11.953125 8.75 33.203125q0 13.984375 -4.109375 24.296875q-4.09375 10.3125 -11.671875 15.703125q-7.578125 5.390625 -17.8125 5.390625zm-7.03125 -71.484375q-8.828125 0 -12.890625 5.4375q-4.0625 5.421875 -4.21875 17.921875l0 2.578125q0 14.0625 4.171875 20.15625q4.1875 6.09375 13.25 6.09375q16.015625 0 16.015625 -26.40625q0 -12.890625 -3.953125 -19.328125q-3.9375 -6.453125 -12.375 -6.453125z" fill-rule="nonzero"></path><path fill="#b4b4b4" d="m551.2031 58.567307l7.8125 0q11.484375 0 16.953125 -3.828125q5.46875 -3.828125 5.46875 -12.03125q0 -8.125 -5.59375 -11.562502q-5.578125 -3.4375 -17.296875 -3.4375l-7.34375 0l0 30.859377zm0 19.6875l0 43.828125l-24.21875 0l0 -114.21875l33.28125 0q23.28125 0 34.453125 8.484374q11.171875 8.46875 11.171875 25.734377q0 10.078125 -5.546875 17.9375q-5.546875 7.84375 -15.703125 12.296875q25.78125 38.515625 33.59375 49.765625l-26.875 0l-27.265625 -43.828125l-12.890625 0zm78.515625 -66.09375q0 -11.640625 12.96875 -11.640625q12.96875 0 12.96875 11.640625q0 5.546874 -3.25 8.640624q-3.234375 3.078125 -9.71875 3.078125q-12.96875 0 -12.96875 -11.718749zm24.84375 109.921875l-23.828125 0l0 -87.34375l23.828125 0l0 87.34375zm101.015625 -87.34375l0 12.109375l-13.671875 3.515625q3.75 5.859375 3.75 13.125q0 14.0625 -9.8125 21.921875q-9.796875 7.84375 -27.21875 7.84375l-4.296875 -0.234375l-3.515625 -0.390625q-3.671875 2.8125 -3.671875 6.25q0 5.15625 13.125 5.15625l14.84375 0q14.375 0 21.90625 6.171875q7.546875 6.171875 7.546875 18.125q0 15.3125 -12.78125 23.75q-12.765625 8.4375 -36.671875 8.4375q-18.28125 0 -27.9375 -6.375q-9.640625 -6.359375 -9.640625 -17.84375q0 -7.890625 4.921875 -13.203125q4.921875 -5.3125 14.453125 -7.578125q-3.671875 -1.5625 -6.40625 -5.109375q-2.734375 -3.5625 -2.734375 -7.546875q0 -5.0 2.890625 -8.3125q2.890625 -3.328125 8.359375 -6.53125q-6.875 -2.96875 -10.90625 -9.53125q-4.015625 -6.5625 -4.015625 -15.46875q0 -14.296875 9.296875 -22.109375q9.296875 -7.8125 26.5625 -7.8125q3.671875 0 8.703125 0.671875q5.046875 0.65625 6.453125 0.96875l30.46875 0zm-67.421875 99.6875q0 4.921875 4.71875 7.734375q4.734375 2.8125 13.25 2.8125q12.8125 0 20.078125 -3.515625q7.265625 -3.515625 7.265625 -9.609375q0 -4.921875 -4.296875 -6.796875q-4.296875 -1.875 -13.28125 -1.875l-12.34375 0q-6.5625 0 -10.984375 3.078125q-4.40625 3.09375 -4.40625 8.171875zm8.671875 -71.09375q0 7.109375 3.234375 11.25q3.25 4.140625 9.890625 4.140625q6.71875 0 9.84375 -4.140625q3.125 -4.140625 3.125 -11.25q0 -15.78125 -12.96875 -15.78125q-13.125 0 -13.125 15.78125zm153.75 58.75l-23.828125 0l0 -51.015625q0 -18.90625 -14.0625 -18.90625q-10.0 0 -14.453125 6.796875q-4.453125 6.796875 -4.453125 22.03125l0 41.09375l-23.828125 0l0 -121.5625l23.828125 0l0 24.765625q0 2.890625 -0.546875 13.593752l-0.546875 7.03125l1.25 0q7.96875 -12.8125 25.3125 -12.8125q15.390625 0 23.359375 8.28125q7.96875 8.28125 7.96875 23.75l0 56.953125zm61.328125 -17.421875q6.25 0 15.0 -2.734375l0 17.734375q-8.90625 3.984375 -21.875 3.984375q-14.296875 0 -20.828125 -7.21875q-6.515625 -7.234375 -6.515625 -21.6875l0 -42.109375l-11.40625 0l0 -10.078125l13.125 -7.96875l6.875 -18.437502l15.234375 0l0 18.593752l24.453125 0l0 17.890625l-24.453125 0l0 42.109375q0 5.078125 2.84375 7.5q2.859375 2.421875 7.546875 2.421875z" fill-rule="nonzero"></path><path fill="#000000" fill-opacity="0.0" d="m200.46289 89.95502l0 0c-5.535202 -25.376152 10.664429 -50.459267 36.18289 -56.024696l0 0c12.25441 -2.672615 25.062836 -0.39487457 35.607544 6.3321457c10.544739 6.7270203 17.962006 17.35228 20.620117 29.538338l0 0c5.5352173 25.376152 -10.664429 50.45926 -36.18289 56.024696l0 0c-25.518463 5.5654297 -50.692444 -10.494331 -56.22766 -35.870483z" fill-rule="nonzero"></path><path stroke="#000000" stroke-width="8.0" stroke-linejoin="round" stroke-linecap="butt" d="m200.46289 89.95502l0 0c-5.535202 -25.376152 10.664429 -50.459267 36.18289 -56.024696l0 0c12.25441 -2.672615 25.062836 -0.39487457 35.607544 6.3321457c10.544739 6.7270203 17.962006 17.35228 20.620117 29.538338l0 0c5.5352173 25.376152 -10.664429 50.45926 -36.18289 56.024696l0 0c-25.518463 5.5654297 -50.692444 -10.494331 -56.22766 -35.870483z" fill-rule="nonzero"></path><path fill="#00ff00" d="m216.98918 42.627228l0 0c-1.309906 -6.0052032 2.336197 -11.900162 8.143784 -13.166763l0 0c2.7888947 -0.60824203 5.713455 -0.045988083 8.130295 1.5630722c2.4168396 1.6090622 4.1279907 4.1331253 4.7570343 7.016922l0 0c1.3098907 6.0052032 -2.3362122 11.900162 -8.143784 13.166763l0 0c-5.8075867 1.2665977 -11.577438 -2.5747948 -12.887329 -8.579994z" fill-rule="nonzero"></path><path stroke="#38761d" stroke-width="2.0" stroke-linejoin="round" stroke-linecap="butt" d="m216.98918 42.627228l0 0c-1.309906 -6.0052032 2.336197 -11.900162 8.143784 -13.166763l0 0c2.7888947 -0.60824203 5.713455 -0.045988083 8.130295 1.5630722c2.4168396 1.6090622 4.1279907 4.1331253 4.7570343 7.016922l0 0c1.3098907 6.0052032 -2.3362122 11.900162 -8.143784 13.166763l0 0c-5.8075867 1.2665977 -11.577438 -2.5747948 -12.887329 -8.579994z" fill-rule="nonzero"></path><path fill="#00ffff" d="m190.74605 90.41724l0 0c-1.3098907 -6.0052032 2.336197 -11.900162 8.143784 -13.166763l0 0c2.7888947 -0.60824585 5.713455 -0.04598999 8.130295 1.5630722c2.4168396 1.6090622 4.128006 4.1331253 4.7570343 7.016922l0 0c1.3098907 6.0052032 -2.336197 11.900162 -8.143784 13.166763l0 0c-5.8075867 1.2666016 -11.577438 -2.5747986 -12.887329 -8.579994z" fill-rule="nonzero"></path><path stroke="#3d85c6" stroke-width="2.0" stroke-linejoin="round" stroke-linecap="butt" d="m190.74605 90.41724l0 0c-1.3098907 -6.0052032 2.336197 -11.900162 8.143784 -13.166763l0 0c2.7888947 -0.60824585 5.713455 -0.04598999 8.130295 1.5630722c2.4168396 1.6090622 4.128006 4.1331253 4.7570343 7.016922l0 0c1.3098907 6.0052032 -2.336197 11.900162 -8.143784 13.166763l0 0c-5.8075867 1.2666016 -11.577438 -2.5747986 -12.887329 -8.579994z" fill-rule="nonzero"></path><path fill="#ff00ff" d="m224.11731 126.67647l0 0c-1.3098907 -6.0051956 2.336197 -11.900162 8.143784 -13.166756l0 0c2.7888947 -0.60824585 5.713455 -0.04598999 8.130295 1.5630722c2.4168396 1.6090546 4.128006 4.1331177 4.7570343 7.016922l0 0c1.3098907 6.0052032 -2.3362122 11.900162 -8.143784 13.166763l0 0c-5.8075867 1.2666016 -11.577438 -2.5747986 -12.887329 -8.580002z" fill-rule="nonzero"></path><path stroke="#a64d79" stroke-width="2.0" stroke-linejoin="round" stroke-linecap="butt" d="m224.11731 126.67647l0 0c-1.3098907 -6.0051956 2.336197 -11.900162 8.143784 -13.166756l0 0c2.7888947 -0.60824585 5.713455 -0.04598999 8.130295 1.5630722c2.4168396 1.6090546 4.128006 4.1331177 4.7570343 7.016922l0 0c1.3098907 6.0052032 -2.3362122 11.900162 -8.143784 13.166763l0 0c-5.8075867 1.2666016 -11.577438 -2.5747986 -12.887329 -8.580002z" fill-rule="nonzero"></path><path fill="#ff0000" d="m271.24164 52.1064l0 0c-1.309906 -6.0051994 2.3362122 -11.900158 8.143768 -13.1667595l0 0c2.78891 -0.60824203 5.7134705 -0.04598999 8.13031 1.5630722c2.4168396 1.6090622 4.1279907 4.1331253 4.757019 7.016922l0 0c1.309906 6.0052032 -2.3361816 11.900162 -8.143768 13.166763l0 0c-5.8075867 1.2665977 -11.577454 -2.5747948 -12.887329 -8.579998z" fill-rule="nonzero"></path><path stroke="#990000" stroke-width="2.0" stroke-linejoin="round" stroke-linecap="butt" d="m271.24164 52.1064l0 0c-1.309906 -6.0051994 2.3362122 -11.900158 8.143768 -13.1667595l0 0c2.78891 -0.60824203 5.7134705 -0.04598999 8.13031 1.5630722c2.4168396 1.6090622 4.1279907 4.1331253 4.757019 7.016922l0 0c1.309906 6.0052032 -2.3361816 11.900162 -8.143768 13.166763l0 0c-5.8075867 1.2665977 -11.577454 -2.5747948 -12.887329 -8.579998z" fill-rule="nonzero"></path><path fill="#ffff00" d="m274.99 108.22426l0 0c-1.309906 -6.0051956 2.3361816 -11.900154 8.143768 -13.166756l0 0c2.78891 -0.60824585 5.7134705 -0.04598999 8.13031 1.5630722c2.4168396 1.6090622 4.1279907 4.1331253 4.757019 7.016922l0 0c1.309906 6.0052032 -2.3362122 11.900162 -8.143768 13.166763l0 0c-5.8075867 1.2665939 -11.577454 -2.5747986 -12.887329 -8.580002z" fill-rule="nonzero"></path><path stroke="#bf9000" stroke-width="2.0" stroke-linejoin="round" stroke-linecap="butt" d="m274.99 108.22426l0 0c-1.309906 -6.0051956 2.3361816 -11.900154 8.143768 -13.166756l0 0c2.78891 -0.60824585 5.7134705 -0.04598999 8.13031 1.5630722c2.4168396 1.6090622 4.1279907 4.1331253 4.757019 7.016922l0 0c1.309906 6.0052032 -2.3362122 11.900162 -8.143768 13.166763l0 0c-5.8075867 1.2665939 -11.577454 -2.5747986 -12.887329 -8.580002z" fill-rule="nonzero"></path></g></svg>

